<?xml version="1.0" encoding="UTF-8"?>
<score-partwise version="4.0">
  <part-list>
    <score-part id="P1"><part-name>Music</part-name></score-part>
  </part-list>
  <part id="P1">
    <measure number="1">
      <attributes>
        <divisions>1</divisions>
        <key><fifths>0</fifths></key>
        <time symbol="common"><beats>4</beats><beat-type>4</beat-type></time>
        <clef><sign>G</sign><line>2</line></clef>
      </attributes>
      <note><pitch><step>A</step><octave>3</octave></pitch><duration>1</duration><voice>1</voice><type>quarter</type></note>
      <note><pitch><step>A</step><octave>3</octave></pitch><duration>1</duration><voice>1</voice><type>quarter</type></note>
      <note><pitch><step>A</step><octave>3</octave></pitch><duration>1</duration><voice>1</voice><type>quarter</type></note>
      <note><pitch><step>A</step><octave>3</octave></pitch><duration>1</duration><voice>1</voice><type>quarter</type></note>
    </measure>
    <measure number="2">
      <note><pitch><step>A</step><octave>3</octave></pitch><duration>1</duration><voice>1</voice><type>quarter</type></note>
      <note><pitch><step>A</step><octave>3</octave></pitch><duration>1</duration><voice>1</voice><type>quarter</type></note>
    </measure>
    <measure number="3">
      <note><pitch><step>D</step><octave>3</octave></pitch><duration>3</duration><voice>1</voice><type>half</type><dot/></note>
    </measure>
    <measure number="4">
      <note><pitch><step>G</step><octave>3</octave></pitch><duration>3</duration><voice>1</voice><type>half</type><dot/></note>
    </measure>
    <measure number="5">
      <note><pitch><step>E</step><octave>3</octave></pitch><duration>3</duration><voice>1</voice><type>half</type><dot/></note>
      <note><pitch><step>A</step><octave>3</octave></pitch><duration>1</duration><voice>1</voice><type>quarter</type></note>
    </measure>
    <measure number="6">
      <note><pitch><step>G</step><octave>3</octave></pitch><duration>2</duration><voice>1</voice><type>half</type></note>
    </measure>
    <measure number="7">
      <note><pitch><step>D</step><octave>3</octave></pitch><duration>6</duration><voice>1</voice><type>whole</type><dot/></note>
    </measure>
    <measure number="8">
      <note><pitch><step>A</step><octave>3</octave></pitch><duration>3</duration><voice>1</voice><type>half</type><dot/></note>
    </measure>
    <measure number="9">
      <note><pitch><step>D</step><octave>3</octave></pitch><duration>6</duration><voice>1</voice><type>whole</type><dot/></note>
    </measure>
    <measure number="10">
      <note><pitch><step>G</step><octave>3</octave></pitch><duration>2</duration><voice>1</voice><type>half</type></note>
      <note><pitch><step>D</step><octave>3</octave></pitch><duration>1</duration><voice>1</voice><type>quarter</type></note>
    </measure>
    <measure number="11">
      <note><pitch><step>D</step><octave>3</octave></pitch><duration>3</duration><voice>1</voice><type>half</type><dot/></note>
    </measure>
    <measure number="12">
      <note><pitch><step>G</step><octave>3</octave></pitch><duration>3</duration><voice>1</voice><type>half</type><dot/></note>
    </measure>
    <measure number="13">
      <note><pitch><step>E</step><octave>3</octave></pitch><duration>3</duration><voice>1</voice><type>half</type><dot/></note>
    </measure>
    <measure number="14">
      <note><pitch><step>A</step><octave>3</octave></pitch><duration>3</duration><voice>1</voice><type>half</type><dot/></note>
    </measure>
    <measure number="15">
      <note><pitch><step>F</step><alter>1</alter><octave>3</octave></pitch><duration>3</duration><voice>1</voice><type>half</type><dot/></note>
    </measure>
    <measure number="16">
      <note><pitch><step>G</step><octave>3</octave></pitch><duration>2</duration><voice>1</voice><type>half</type></note>
    </measure>
    <measure number="17">
      <note><pitch><step>D</step><octave>3</octave></pitch><duration>3</duration><voice>1</voice><type>half</type><dot/></note>
    </measure>
    <measure number="18">
      <note><pitch><step>D</step><octave>3</octave></pitch><duration>3</duration><voice>1</voice><type>half</type><dot/></note>
    </measure>
    <measure number="19">
      <note><pitch><step>A</step><octave>3</octave></pitch><duration>3</duration><voice>1</voice><type>half</type><dot/></note>
    </measure>
    <measure number="20">
      <note><pitch><step>A</step><octave>3</octave></pitch><duration>3</duration><voice>1</voice><type>half</type><dot/></note>
    </measure>
    <measure number="21">
      <note><pitch><step>D</step><octave>3</octave></pitch><duration>3</duration><voice>1</voice><type>half</type><dot/></note>
    </measure>
    <measure number="22">
      <note><pitch><step>G</step><octave>3</octave></pitch><duration>2</duration><voice>1</voice><type>half</type></note>
      <note><pitch><step>D</step><octave>3</octave></pitch><duration>2</duration><voice>1</voice><type>half</type></note>
    </measure>
  </part>
</score-partwise>
